<svg fill="none" viewBox="0 0 16 16">
  <g clip-path="url(#clip0)">
    <path fill="#333" d="M4.37 16a3.983 3.983 0 01-2.837-1.171A3.985 3.985 0 01.36 11.99c0-1.074.416-2.082 1.172-2.837L9.83.856C11.02-.331 12.864-.278 14.123.98c1.259 1.26 1.313 3.104.126 4.292l-7.797 7.796a1.88 1.88 0 01-2.656 0 1.881 1.881 0 010-2.657l5.28-5.281a.456.456 0 11.645.645l-5.28 5.28a.968.968 0 000 1.368.969.969 0 001.366 0l7.797-7.796c.819-.82.765-2.11-.126-3.002-.892-.891-2.182-.945-3.002-.126L2.177 9.8a3.078 3.078 0 00-.904 2.191c0 .831.322 1.61.904 2.193a3.078 3.078 0 002.193.904c.83 0 1.61-.321 2.192-.904l8.299-8.299a.456.456 0 11.645.645L7.207 14.83A3.984 3.984 0 014.37 16z"/>
  </g>
  <defs>
    <clipPath id="clip0">
      <path fill="#fff" d="M0 0h16v16H0z"/>
    </clipPath>
  </defs>
</svg>
