<svg width="23" height="38" viewBox="0 0 23 38" fill="none" xmlns="http://www.w3.org/2000/svg">
<path d="M19.6232 37.0488H3.37677C1.51482 37.0488 0 35.534 0 33.6721C0 32.0899 0 4.28427 0 3.42635C0 1.5644 1.51482 0.0495758 3.37677 0.0495758H19.6232C21.4852 0.0495758 23 1.5644 23 3.42635C23 5.00863 23 32.8141 23 33.6721C23 35.534 21.4852 37.0488 19.6232 37.0488ZM20.7488 3.42635C20.7488 2.80569 20.2439 2.30075 19.6232 2.30075H3.37677C2.75612 2.30075 2.25118 2.80569 2.25118 3.42635V6.00822H20.7488V3.42635ZM20.7488 8.2594H2.25118V28.839H20.7488V8.2594ZM20.7488 31.0902H2.25118V33.6721C2.25118 34.2927 2.75612 34.7976 3.37677 34.7976H19.6232C20.2439 34.7976 20.7488 34.2927 20.7488 33.6721V31.0902Z" fill="#1B91E3"/>
<path d="M9.34629 2.98124H13.6611C14.2827 2.98124 14.7866 3.48521 14.7866 4.10683C14.7866 4.72846 14.2827 5.23242 13.6611 5.23242H9.34629C8.72467 5.23242 8.2207 4.72846 8.2207 4.10683C8.2207 3.48521 8.72467 2.98124 9.34629 2.98124Z" fill="#1B91E3"/>
<path d="M15.5712 34.1211H11.2564C10.6348 34.1211 10.1309 33.6171 10.1309 32.9955C10.1309 32.3739 10.6348 31.8699 11.2564 31.8699H15.5712C16.1928 31.8699 16.6968 32.3739 16.6968 32.9955C16.6968 33.6171 16.1928 34.1211 15.5712 34.1211Z" fill="#1B91E3"/>
<path d="M7.9407 34.1211H7.43418C6.81256 34.1211 6.30859 33.6171 6.30859 32.9955C6.30859 32.3739 6.81256 31.8699 7.43418 31.8699H7.9407C8.56232 31.8699 9.06629 32.3739 9.06629 32.9955C9.06629 33.6171 8.56232 34.1211 7.9407 34.1211Z" fill="#1B91E3"/>
</svg>
