<svg viewBox="0 0 23 33" fill="none" xmlns="http://www.w3.org/2000/svg">
  <path d="M20.34.049H2.66A2.663 2.663 0 000 2.709v27.107a2.663 2.663 0 002.66 2.66h17.68a2.663 2.663 0 002.66-2.66V2.709a2.663 2.663 0 00-2.66-2.66zm-11.69 1.9h5.7v.95a.95.95 0 01-.95.95H9.6a.95.95 0 01-.95-.95v-.95zM21.1 29.815c0 .42-.34.76-.76.76H2.66a.76.76 0 01-.76-.76V2.71c0-.42.34-.76.76-.76h4.09v.95a2.853 2.853 0 002.85 2.85h3.8a2.853 2.853 0 002.85-2.85v-.95h4.09c.42 0 .76.34.76.76v27.107z" fill="#1B91E3"/>
  <path d="M7.7 17.148h7.6a.95.95 0 00.95-.95v-5.366a.95.95 0 00-.469-.819l-3.8-2.234a.95.95 0 00-.964.002l-3.8 2.246a.95.95 0 00-.467.818v5.353c0 .525.425.95.95.95zm.95-5.761l2.851-1.686 2.849 1.675v3.872h-1.9v-1.266a.95.95 0 10-1.9 0v1.266h-1.9v-3.861zM18.249 19.049h-13.5a.95.95 0 000 1.9h13.5a.95.95 0 100-1.9zM18.249 22.848h-13.5a.95.95 0 000 1.9h13.5a.95.95 0 100-1.9zM10.169 26.648h-5.42a.95.95 0 000 1.9h5.42a.95.95 0 100-1.9z" fill="#1B91E3"/>
</svg>
