<svg width="29" height="30" viewBox="0 0 29 30" fill="none" xmlns="http://www.w3.org/2000/svg">
<path d="M28.6683 7.06429L21.9847 0.380706C21.5422 -0.0617979 20.8249 -0.0617979 20.3826 0.380706L14.5 6.26313C8.20049 -0.0204238 8.58679 0.293975 8.30027 0.158569C8.14539 0.0851135 7.97636 0.0488281 7.81639 0.0488281C3.52078 0.0488281 0.000221252 3.53841 0.000221252 7.87031C0.00177002 8.17984 0.12899 8.46348 0.331878 8.66637L6.21431 14.5488L0.331878 20.4314C-0.110626 20.8737 -0.110626 21.591 0.331878 22.0335L7.01546 28.7171C7.45774 29.1594 8.17504 29.1594 8.61755 28.7171L14.5 22.8345C19.6211 27.9545 19.337 27.7551 19.7337 27.8719C20.0361 27.9609 19.8186 27.8985 26.7365 27.9184C27.3622 27.9184 27.8693 27.4111 27.8693 26.7856C27.8674 19.5102 27.893 20.0108 27.8202 19.7719C27.6724 19.2862 27.714 19.5451 22.7856 14.5488L28.6681 8.66637C29.1106 8.22387 29.1106 7.50657 28.6683 7.06429ZM11.1582 22.9721L8.61732 20.4314C8.17504 19.9892 7.45774 19.9892 7.01524 20.4314C6.57296 20.8737 6.57296 21.591 7.01524 22.0335L9.5561 24.5742L7.81639 26.3139L2.7349 21.2324L7.81639 16.1509L12.8979 21.2324L11.1582 22.9721ZM25.6037 25.6528H21.3021C21.7504 23.4991 23.4503 21.7994 25.6037 21.3512V25.6528ZM24.3687 19.336C21.9599 20.1033 20.0545 22.009 19.2872 24.4175C18.317 23.4473 3.35219 8.48251 2.28398 7.41453C2.50236 4.7126 4.66355 2.55119 7.36548 2.33281C7.58186 2.5492 19.6961 14.6632 20.382 15.3493C20.3822 15.3495 20.3824 15.3497 20.3826 15.35C20.3826 15.35 20.3828 15.3502 20.3831 15.3504L24.3687 19.336ZM24.5253 9.60492L21.9847 7.06429C21.5422 6.622 20.8249 6.622 20.3826 7.06429C19.9401 7.50657 19.9401 8.22387 20.3826 8.66637L22.9233 11.207L21.1836 12.9467L16.1021 7.86522L21.1836 2.78372L26.265 7.86522L24.5253 9.60492Z" fill="#1B91E3"/>
</svg>
