<svg width="29" height="33" viewBox="0 0 29 33" fill="none" xmlns="http://www.w3.org/2000/svg">
<path d="M25.7716 6.75014H25.5276C25.5351 6.74263 27.0942 5.18961 27.1012 5.1816C28.2231 4.01438 28.2101 2.16096 27.0592 1.01019C25.8773 -0.171735 23.9902 -0.127937 22.8728 0.982661L17.1254 6.75014H2.7367C1.2276 6.75014 0 7.97774 0 9.48684V22.723C0 24.2321 1.2276 25.4597 2.7367 25.4597H10.9405L10.5839 30.1698H8.99215C8.47408 30.1698 8.05362 30.5903 8.05362 31.1083C8.05362 31.6264 8.47408 32.0469 8.99215 32.0469H19.516C20.0341 32.0469 20.4545 31.6264 20.4545 31.1083C20.4545 30.5903 20.0341 30.1698 19.516 30.1698H17.9242L17.5676 25.4597H25.7714C27.2805 25.4597 28.5081 24.2321 28.5081 22.723V9.4869C28.5083 7.97774 27.2807 6.75014 25.7716 6.75014ZM26.6313 22.723C26.6313 23.1973 26.2458 23.5827 25.7716 23.5827C24.205 23.5827 3.41363 23.5827 2.73664 23.5827C2.26237 23.5827 1.87694 23.1973 1.87694 22.723V9.4869C1.87694 9.01263 2.26237 8.6272 2.73664 8.6272H15.2546L13.0942 10.7952C11.7134 10.6463 10.2991 11.0981 9.24812 12.1498C7.78952 13.6071 7.06497 18.2112 6.84992 20.1847C6.7851 20.7828 7.29247 21.2848 7.88481 21.2189C9.91561 20.998 14.4694 20.2764 15.9197 18.8213C16.9604 17.7805 17.4249 16.3718 17.2743 14.9753L23.6444 8.62714H25.7716C26.2459 8.62714 26.6313 9.01257 26.6313 9.48684V22.723H26.6313ZM16.0417 30.1699H12.4665L12.8232 25.4597H15.685L16.0417 30.1699ZM24.1943 2.316C24.6247 1.90931 25.3124 1.91807 25.7315 2.33728C26.1514 2.75712 26.1601 3.44469 25.7534 3.87522C19.6546 9.95279 25.8331 3.79582 16.596 13.0013C16.2224 12.3995 15.6967 11.8625 15.0682 11.4735C19.4694 7.0566 15.4924 11.0474 24.1943 2.316ZM8.87146 19.198C9.05754 17.9592 9.7 14.3516 10.5751 13.4768C11.6814 12.3692 13.4805 12.3647 14.5926 13.4768C15.7024 14.5864 15.6973 16.3896 14.5926 17.4943C13.7139 18.373 10.1014 19.0139 8.87146 19.198Z" fill="white"/>
</svg>
