<svg width="23" height="24" viewBox="0 0 23 24" fill="none" xmlns="http://www.w3.org/2000/svg">
<path d="M21.9931 19.5729H19.7019V17.2429C19.7019 17.1148 19.5988 17.0099 19.4727 17.0099H18.098C17.972 17.0099 17.8689 17.1148 17.8689 17.2429V19.5729H15.5776C15.4516 19.5729 15.3485 19.6778 15.3485 19.8059V21.204C15.3485 21.3321 15.4516 21.437 15.5776 21.437H17.8689V23.767C17.8689 23.8951 17.972 24 18.098 24H19.4727C19.5988 24 19.7019 23.8951 19.7019 23.767V21.437H21.9931C22.1191 21.437 22.2222 21.3321 22.2222 21.204V19.8059C22.2222 19.6778 22.1191 19.5729 21.9931 19.5729ZM7.14301 11.6042C7.11723 11.3508 7.10291 11.0945 7.10291 10.8353C7.10291 10.3722 7.14587 9.92079 7.22606 9.481C7.24611 9.37615 7.1917 9.26838 7.09718 9.22469C6.70767 9.04703 6.34967 8.80237 6.04035 8.49365C5.67587 8.13426 5.38906 7.70156 5.19822 7.22315C5.00738 6.74474 4.9167 6.23113 4.93196 5.71508C4.95774 4.78016 5.3272 3.89183 5.97161 3.22195C6.67903 2.48508 7.6299 2.08315 8.6409 2.0948C9.55454 2.10354 10.4367 2.46178 11.104 3.09671C11.3302 3.31224 11.525 3.55107 11.6883 3.80737C11.7455 3.89766 11.8572 3.93552 11.9546 3.90057C12.4587 3.72291 12.9914 3.59767 13.5384 3.53942C13.6988 3.52194 13.7905 3.34719 13.7189 3.20156C12.788 1.3288 10.8863 0.0356339 8.68673 0.000683388C5.51336 -0.0488298 2.86698 2.59867 2.86698 5.82576C2.86698 7.65483 3.69469 9.28586 4.99211 10.3548C4.08134 10.7829 3.24217 11.3741 2.51471 12.1139C0.945207 13.7071 0.0573526 15.8099 7.16159e-05 18.0555C-0.000692813 18.0866 0.00466898 18.1175 0.0158408 18.1465C0.0270126 18.1754 0.0437685 18.2018 0.0651212 18.224C0.086474 18.2463 0.111991 18.264 0.14017 18.2761C0.168349 18.2881 0.198619 18.2943 0.229196 18.2943H1.83593C1.95908 18.2943 2.06219 18.1953 2.06505 18.0701C2.11947 16.3808 2.79252 14.7993 3.97537 13.5993C4.8174 12.743 5.84846 12.1489 6.97403 11.8605C7.08286 11.8285 7.15733 11.7207 7.14301 11.6042ZM20.0455 10.8353C20.0455 7.64901 17.528 5.05976 14.4062 5.01025C11.2329 4.96074 8.58935 7.60823 8.58935 10.8353C8.58935 12.6644 9.41993 14.2954 10.7145 15.3643C9.79428 15.7981 8.95658 16.3936 8.23994 17.1235C6.67044 18.7167 5.78258 20.8195 5.7253 23.0622C5.72454 23.0932 5.7299 23.1242 5.74107 23.1531C5.75224 23.1821 5.769 23.2084 5.79035 23.2307C5.81171 23.253 5.83722 23.2706 5.8654 23.2827C5.89358 23.2948 5.92385 23.301 5.95443 23.301H7.55829C7.68145 23.301 7.78455 23.202 7.78742 23.0767C7.84184 21.3875 8.51489 19.8059 9.69774 18.606C10.9321 17.3507 12.5704 16.6604 14.3174 16.6604C17.4794 16.6604 20.0455 14.0537 20.0455 10.8353ZM16.9094 13.4712C16.2163 14.176 15.297 14.5634 14.3174 14.5634C13.3379 14.5634 12.4186 14.176 11.7255 13.4712C11.3796 13.1213 11.1063 12.7044 10.9218 12.2451C10.7374 11.7858 10.6454 11.2935 10.6515 10.7975C10.6601 9.84215 11.0352 8.91888 11.6911 8.23443C12.3785 7.51795 13.2978 7.11893 14.2802 7.10728C15.2511 7.09854 16.1934 7.483 16.8865 8.17327C17.5968 8.88101 17.9863 9.82759 17.9863 10.8353C17.9834 11.8314 17.6025 12.7663 16.9094 13.4712Z" fill="#1B91E3"/>
</svg>
