<svg fill="none" viewBox="0 0 26 32">
  <path fill="#1B91E3" d="M24.112 6.642L18.086.94A3.424 3.424 0 0015.724 0H4.25A3.441 3.441 0 00.812 3.438v25.125A3.441 3.441 0 004.25 32h17.5a3.441 3.441 0 003.438-3.438V9.14c0-.94-.392-1.85-1.076-2.497zm-1.82.858h-4.667a.313.313 0 01-.313-.313V2.79l4.98 4.71zm-.542 22.625H4.25c-.862 0-1.563-.7-1.563-1.563V3.438c0-.861.701-1.562 1.563-1.562h11.188v5.313a2.19 2.19 0 002.187 2.187h5.688v19.188c0 .861-.701 1.562-1.563 1.562z"/>
  <path fill="#1B91E3" d="M19.688 12.5H5.938a.937.937 0 100 1.875h13.75a.938.938 0 000-1.875zM19.688 17.5H5.938a.937.937 0 100 1.875h13.75a.938.938 0 000-1.875zM10.482 22.5H5.939a.937.937 0 100 1.875h4.545a.938.938 0 000-1.875z"/>
</svg>
