<svg fill="none" viewBox="0 0 26 26">
  <path fill="#1B91E3" d="M23.02 26H2.98A2.982 2.982 0 010 23.02V5.145a2.982 2.982 0 012.98-2.979h20.04A2.982 2.982 0 0126 5.146V23.02A2.982 2.982 0 0123.02 26zM2.98 3.79c-.747 0-1.355.608-1.355 1.354V23.02c0 .747.608 1.354 1.354 1.354h20.042c.746 0 1.354-.607 1.354-1.354V5.145c0-.746-.608-1.354-1.354-1.354H2.979z"/>
  <path fill="#1B91E3" d="M25.188 10.291H.813a.813.813 0 010-1.625h24.375a.813.813 0 010 1.625zM6.229 6.5a.813.813 0 01-.813-.813V.813a.813.813 0 011.625 0v4.875a.813.813 0 01-.812.813zM19.771 6.5a.813.813 0 01-.812-.813V.813a.813.813 0 011.625 0v4.875a.813.813 0 01-.813.813zM15.87 14v1.05L13.27 21h-1.76l2.51-5.68H11.7v1.14h-1.44V14h5.61z"/>
</svg>
