<svg width="23" height="25" viewBox="0 0 23 25" fill="none" xmlns="http://www.w3.org/2000/svg">
<path d="M6.9 5.6879C7.12745 5.6879 7.34979 5.62118 7.53891 5.49618C7.72802 5.37118 7.87542 5.19352 7.96246 4.98565C8.0495 4.77779 8.07228 4.54906 8.0279 4.32839C7.98353 4.10772 7.874 3.90502 7.71317 3.74593C7.55234 3.58684 7.34743 3.47849 7.12435 3.4346C6.90128 3.3907 6.67005 3.41323 6.45991 3.49933C6.24978 3.58543 6.07017 3.73124 5.94381 3.91831C5.81745 4.10539 5.75 4.32533 5.75 4.55032C5.75 4.85203 5.87116 5.14137 6.08683 5.35471C6.30249 5.56805 6.595 5.6879 6.9 5.6879ZM21.85 20.4764H14.743C14.5713 19.9993 14.2944 19.566 13.9324 19.2079C13.5704 18.8498 13.1323 18.5759 12.65 18.406V15.9261H17.25C18.165 15.9261 19.0425 15.5666 19.6895 14.9266C20.3365 14.2865 20.7 13.4185 20.7 12.5134V10.2382C20.6949 9.39635 20.3755 8.58604 19.803 7.96306C20.3755 7.34008 20.6949 6.52977 20.7 5.6879V3.41274C20.7 2.50763 20.3365 1.63958 19.6895 0.999568C19.0425 0.359555 18.165 0 17.25 0H5.75C4.835 0 3.95748 0.359555 3.31048 0.999568C2.66348 1.63958 2.3 2.50763 2.3 3.41274V5.6879C2.30507 6.52977 2.62454 7.34008 3.197 7.96306C2.62454 8.58604 2.30507 9.39635 2.3 10.2382V12.5134C2.3 13.4185 2.66348 14.2865 3.31048 14.9266C3.95748 15.5666 4.835 15.9261 5.75 15.9261H10.35V18.406C9.86769 18.5759 9.42965 18.8498 9.06763 19.2079C8.70562 19.566 8.42872 19.9993 8.257 20.4764H1.15C0.845001 20.4764 0.552494 20.5963 0.336827 20.8096C0.12116 21.023 0 21.3123 0 21.614C0 21.9157 0.12116 22.2051 0.336827 22.4184C0.552494 22.6318 0.845001 22.7516 1.15 22.7516H8.257C8.49874 23.4104 8.93967 23.9797 9.51989 24.3819C10.1001 24.7842 10.7915 25 11.5 25C12.2085 25 12.8999 24.7842 13.4801 24.3819C14.0603 23.9797 14.5013 23.4104 14.743 22.7516H21.85C22.155 22.7516 22.4475 22.6318 22.6632 22.4184C22.8788 22.2051 23 21.9157 23 21.614C23 21.3123 22.8788 21.023 22.6632 20.8096C22.4475 20.5963 22.155 20.4764 21.85 20.4764ZM4.6 3.41274C4.6 3.11104 4.72116 2.82169 4.93683 2.60835C5.15249 2.39501 5.445 2.27516 5.75 2.27516H17.25C17.555 2.27516 17.8475 2.39501 18.0632 2.60835C18.2788 2.82169 18.4 3.11104 18.4 3.41274V5.6879C18.4 5.9896 18.2788 6.27895 18.0632 6.49229C17.8475 6.70563 17.555 6.82548 17.25 6.82548H5.75C5.445 6.82548 5.15249 6.70563 4.93683 6.49229C4.72116 6.27895 4.6 5.9896 4.6 5.6879V3.41274ZM5.75 13.651C5.445 13.651 5.15249 13.5311 4.93683 13.3178C4.72116 13.1044 4.6 12.8151 4.6 12.5134V10.2382C4.6 9.93652 4.72116 9.64717 4.93683 9.43383C5.15249 9.22049 5.445 9.10064 5.75 9.10064H17.25C17.555 9.10064 17.8475 9.22049 18.0632 9.43383C18.2788 9.64717 18.4 9.93652 18.4 10.2382V12.5134C18.4 12.8151 18.2788 13.1044 18.0632 13.3178C17.8475 13.5311 17.555 13.651 17.25 13.651H5.75ZM11.5 22.7516C11.2726 22.7516 11.0502 22.6849 10.8611 22.5599C10.672 22.4349 10.5246 22.2572 10.4375 22.0494C10.3505 21.8415 10.3277 21.6128 10.3721 21.3921C10.4165 21.1714 10.526 20.9687 10.6868 20.8096C10.8477 20.6505 11.0526 20.5422 11.2756 20.4983C11.4987 20.4544 11.73 20.4769 11.9401 20.563C12.1502 20.6491 12.3298 20.7949 12.4562 20.982C12.5826 21.1691 12.65 21.389 12.65 21.614C12.65 21.9157 12.5288 22.2051 12.3132 22.4184C12.0975 22.6318 11.805 22.7516 11.5 22.7516ZM6.9 10.2382C6.67255 10.2382 6.45021 10.3049 6.26109 10.4299C6.07198 10.5549 5.92458 10.7326 5.83754 10.9405C5.7505 11.1483 5.72772 11.3771 5.7721 11.5977C5.81647 11.8184 5.926 12.0211 6.08683 12.1802C6.24766 12.3393 6.45257 12.4476 6.67565 12.4915C6.89872 12.5354 7.12995 12.5129 7.34009 12.4268C7.55022 12.3407 7.72983 12.1949 7.85619 12.0078C7.98255 11.8207 8.05 11.6008 8.05 11.3758C8.05 11.0741 7.92884 10.7847 7.71317 10.5714C7.49751 10.3581 7.205 10.2382 6.9 10.2382Z" fill="#1B91E3"/>
</svg>
