<svg fill="none" viewBox="0 0 26 26">
  <path fill="#1B91E3" d="M23.02 26H2.98A2.982 2.982 0 010 23.02V5.145a2.982 2.982 0 012.98-2.979h20.04A2.982 2.982 0 0126 5.146V23.02A2.982 2.982 0 0123.02 26zM2.98 3.79c-.747 0-1.355.608-1.355 1.354V23.02c0 .747.608 1.354 1.354 1.354h20.042c.746 0 1.354-.607 1.354-1.354V5.145c0-.746-.608-1.354-1.354-1.354H2.979z"/>
  <path fill="#1B91E3" d="M25.188 10.291H.813a.813.813 0 010-1.625h24.375a.813.813 0 010 1.625zM6.229 6.5a.813.813 0 01-.813-.813V.813a.813.813 0 011.625 0v4.875a.813.813 0 01-.812.813zM19.771 6.5a.813.813 0 01-.812-.813V.813a.813.813 0 011.625 0v4.875a.813.813 0 01-.813.813zM9.807 16.85c.614.1 1.084.33 1.41.69.327.353.49.793.49 1.32 0 .407-.106.783-.32 1.13-.213.34-.54.613-.98.82-.433.207-.966.31-1.6.31-.493 0-.98-.063-1.46-.19a3.829 3.829 0 01-1.21-.56l.63-1.24c.267.2.574.357.92.47.354.107.714.16 1.08.16.407 0 .727-.077.96-.23a.767.767 0 00.35-.67c0-.573-.436-.86-1.31-.86h-.74v-1.07l1.44-1.63h-2.98V14h4.9v1.05l-1.58 1.8zm6.648 4.27c-.58 0-1.096-.143-1.55-.43-.453-.287-.81-.7-1.07-1.24-.253-.547-.38-1.197-.38-1.95 0-.753.127-1.4.38-1.94.26-.547.617-.963 1.07-1.25.454-.287.97-.43 1.55-.43.58 0 1.097.143 1.55.43.454.287.807.703 1.06 1.25.26.54.39 1.187.39 1.94 0 .753-.13 1.403-.39 1.95-.253.54-.606.953-1.06 1.24-.453.287-.97.43-1.55.43zm0-1.37c.427 0 .76-.183 1-.55.247-.367.37-.933.37-1.7 0-.767-.123-1.333-.37-1.7-.24-.367-.573-.55-1-.55-.42 0-.753.183-1 .55-.24.367-.36.933-.36 1.7 0 .767.12 1.333.36 1.7.247.367.58.55 1 .55z"/>
</svg>
