<svg fill="none" viewBox="0 0 20 32">
  <path fill="#1B91E3" d="M16.405 0H3.178A3.182 3.182 0 000 3.178v25.644A3.182 3.182 0 003.178 32h13.227a3.182 3.182 0 003.178-3.178V3.178A3.182 3.182 0 0016.405 0zm-3.393 1.941l-.308 1.351a.247.247 0 01-.242.193H7.12a.247.247 0 01-.242-.193l-.307-1.351h6.441zm4.63 26.88c0 .683-.555 1.238-1.237 1.238H3.178a1.239 1.239 0 01-1.237-1.237V3.178c0-.682.555-1.237 1.237-1.237H4.58l.406 1.782A2.178 2.178 0 007.12 5.426h5.342c1.028 0 1.906-.7 2.134-1.703l.406-1.782h1.402c.682 0 1.237.555 1.237 1.237v25.644z"/>
  <path fill="#1B91E3" d="M14.23 9.91H5.354a.97.97 0 000 1.941h8.874a.97.97 0 100-1.94zM5.355 16.382H8.67a.97.97 0 100-1.94H5.355a.97.97 0 100 1.94zM12.947 18.973H5.355a.97.97 0 100 1.94h7.592a.97.97 0 100-1.94zM10.808 23.504H5.355a.97.97 0 100 1.94h5.453a.97.97 0 000-1.94z"/>
</svg>
