<svg width="24" height="24" viewBox="0 0 24 24" fill="none" xmlns="http://www.w3.org/2000/svg">
<path d="M14.397 19.2157C14.7164 19.2157 15.0228 19.0896 15.2486 18.8653C15.4745 18.641 15.6014 18.3368 15.6014 18.0196V15.6274C15.6014 15.3102 15.4745 15.006 15.2486 14.7817C15.0228 14.5574 14.7164 14.4313 14.397 14.4313C14.0776 14.4313 13.7713 14.5574 13.5454 14.7817C13.3196 15.006 13.1927 15.3102 13.1927 15.6274V18.0196C13.1927 18.3368 13.3196 18.641 13.5454 18.8653C13.7713 19.0896 14.0776 19.2157 14.397 19.2157ZM9.57971 19.2157C9.89911 19.2157 10.2054 19.0896 10.4313 18.8653C10.6572 18.641 10.784 18.3368 10.784 18.0196V15.6274C10.784 15.3102 10.6572 15.006 10.4313 14.7817C10.2054 14.5574 9.89911 14.4313 9.57971 14.4313C9.2603 14.4313 8.95397 14.5574 8.72812 14.7817C8.50226 15.006 8.37537 15.3102 8.37537 15.6274V18.0196C8.37537 18.3368 8.50226 18.641 8.72812 18.8653C8.95397 19.0896 9.2603 19.2157 9.57971 19.2157ZM20.4187 4.86274H18.7567L16.6732 0.736279C16.6095 0.584441 16.515 0.447276 16.3956 0.333355C16.2761 0.219433 16.1343 0.131204 15.979 0.0741818C15.8236 0.0171592 15.6581 -0.00743183 15.4928 0.00194565C15.3274 0.0113231 15.1658 0.0544676 15.018 0.128683C14.8702 0.202898 14.7394 0.306589 14.6338 0.433275C14.5282 0.559961 14.45 0.706921 14.4042 0.864969C14.3583 1.02302 14.3458 1.18876 14.3674 1.35184C14.3889 1.51491 14.4441 1.67182 14.5295 1.81275L16.059 4.86274H7.91773L9.44723 1.81275C9.56413 1.53395 9.5705 1.22155 9.46508 0.93828C9.35965 0.655007 9.15023 0.421827 8.87886 0.285557C8.60749 0.149286 8.29425 0.120014 8.00205 0.203617C7.70985 0.28722 7.4603 0.477509 7.30352 0.736279L5.22003 4.86274H3.55805C2.70682 4.8756 1.8875 5.18657 1.24459 5.74082C0.601689 6.29506 0.176502 7.05697 0.0440219 7.89217C-0.0884583 8.72737 0.080279 9.5822 0.520474 10.3059C0.960668 11.0296 1.64404 11.5757 2.45007 11.8478L3.34127 20.7705C3.43114 21.6587 3.85112 22.4817 4.5192 23.0789C5.18727 23.676 6.05547 24.0044 6.95426 24H17.0466C17.9453 24.0044 18.8135 23.676 19.4816 23.0789C20.1497 22.4817 20.5697 21.6587 20.6595 20.7705L21.5507 11.8478C22.3585 11.5749 23.043 11.0268 23.4829 10.3007C23.9227 9.57456 24.0897 8.71725 23.9541 7.88061C23.8185 7.04397 23.3891 6.28199 22.742 5.72963C22.0949 5.17726 21.2719 4.87017 20.4187 4.86274ZM18.2388 20.5313C18.2089 20.8274 18.0689 21.1017 17.8462 21.3008C17.6235 21.4998 17.3341 21.6093 17.0345 21.6078H6.94222C6.64262 21.6093 6.35322 21.4998 6.13053 21.3008C5.90784 21.1017 5.76785 20.8274 5.73789 20.5313L4.88282 12.0392H19.0939L18.2388 20.5313ZM20.4187 9.64704H3.55805C3.23864 9.64704 2.93232 9.52103 2.70646 9.29672C2.48061 9.07241 2.35372 8.76819 2.35372 8.45097C2.35372 8.13375 2.48061 7.82952 2.70646 7.60522C2.93232 7.38091 3.23864 7.25489 3.55805 7.25489H20.4187C20.7381 7.25489 21.0444 7.38091 21.2703 7.60522C21.4961 7.82952 21.623 8.13375 21.623 8.45097C21.623 8.76819 21.4961 9.07241 21.2703 9.29672C21.0444 9.52103 20.7381 9.64704 20.4187 9.64704Z" fill="#1B91E3"/>
</svg>
