<svg fill="none" viewBox="0 0 32 29">
  <path fill="#1B91E3" d="M28.563 5.75h-.313V2.187A2.19 2.19 0 0026.062 0h-22a2.19 2.19 0 00-2.187 2.188v14.75H.937a.937.937 0 00-.937.937v4.375a2.19 2.19 0 002.188 2.188h16.687v.375a3.441 3.441 0 003.438 3.437h6.25A3.441 3.441 0 0032 24.812V9.188a3.441 3.441 0 00-3.438-3.437zm-7.813 7.438h9.375v7.5H20.75v-7.5zm9.375-4v2.124H20.75V9.188c0-.862.7-1.563 1.563-1.563h6.25c.861 0 1.562.7 1.562 1.563zm-26.375-7c0-.173.14-.313.313-.313h22c.172 0 .312.14.312.313V5.75h-4.063a3.441 3.441 0 00-3.437 3.438v9.624h-7.262l-.411-1.233a.938.938 0 00-.89-.642H3.75V2.188zM2.187 22.563a.313.313 0 01-.312-.313v-3.438h7.762l.411 1.234a.938.938 0 00.89.642h7.937v1.875H2.187zm26.375 3.812h-6.25c-.861 0-1.562-.7-1.562-1.563v-2.25h9.375v2.25c0 .862-.7 1.563-1.563 1.563z"/>
</svg>
