<svg width="21" height="24" viewBox="0 0 21 24" fill="none" xmlns="http://www.w3.org/2000/svg">
<path d="M21 18.6667V5.33333C21 2.44267 16.1923 0 10.5 0C4.80769 0 0 2.44267 0 5.33333V18.6667C0 21.5573 4.80769 24 10.5 24C16.1923 24 21 21.5573 21 18.6667ZM10.5 2.66667C15.3444 2.66667 18.2844 4.676 18.375 5.32533C18.2844 5.99067 15.3444 8 10.5 8C5.65556 8 2.71556 5.99067 2.625 5.34133C2.71556 4.676 5.65556 2.66667 10.5 2.66667ZM2.625 8.80933C4.56619 9.93867 7.39856 10.6667 10.5 10.6667C13.6014 10.6667 16.4338 9.93867 18.375 8.80933V11.992C18.2844 12.6573 15.3444 14.6667 10.5 14.6667C5.65556 14.6667 2.71556 12.6573 2.625 12V8.80933ZM2.625 18.6667V15.476C4.56619 16.6053 7.39856 17.3333 10.5 17.3333C13.6014 17.3333 16.4338 16.6053 18.375 15.476V18.6587C18.2844 19.324 15.3444 21.3333 10.5 21.3333C5.65556 21.3333 2.71556 19.324 2.625 18.6667Z" fill="#1B91E3"/>
</svg>
